<?xml version="1.0" encoding="utf-8"?>
<!-- Generator: Adobe Illustrator 21.0.0, SVG Export Plug-In . SVG Version: 6.00 Build 0)  -->
<svg version="1.1" id="Layer_1" xmlns="http://www.w3.org/2000/svg" xmlns:xlink="http://www.w3.org/1999/xlink" x="0px" y="0px"
	 viewBox="0 0 2800 831.2" style="enable-background:new 0 0 2800 831.2;" xml:space="preserve">
<style type="text/css">
	.st0{fill:#003657;enable-background:new    ;}
	.st1{fill:#004B6F;enable-background:new    ;}
	.st2{fill:#046D89;enable-background:new    ;}
	.st3{fill:#00A8BA;stroke:#00A8BA;stroke-width:2;stroke-miterlimit:10;enable-background:new    ;}
</style>
<path class="st0" d="M-125-43.8l25-43.8H0l25,43.8l-50,87.5h-50L-125-43.8z"/>
<path class="st0" d="M-150,87.5l25-43.8h100L0,87.5L-50,175h-50L-150,87.5z"/>
<path class="st0" d="M-25,43.7L0,0h100l25,43.8l-50,87.5H25L-25,43.7z"/>
<path class="st0" d="M100,0l25-43.8h100L250,0l-50,87.5h-50L100,0z"/>
<path class="st0" d="M225-43.8l25-43.8h100l25,43.8l-50,87.5h-50L225-43.8z"/>
<path class="st1" d="M-175,218.7l25-43.8h100l25,43.8l-50,87.5h-50L-175,218.7z"/>
<path class="st0" d="M-50,175l25-43.8H75l25,43.8l-50,87.5H0L-50,175z"/>
<path class="st0" d="M75,131.2l25-43.8h100l25,43.8l-50,87.5h-50L75,131.2z"/>
<path class="st0" d="M200,87.5l25-43.8h100l25,43.8L300,175h-50L200,87.5z"/>
<path class="st0" d="M325,43.7L350,0h100l25,43.8l-50,87.5h-50L325,43.7z"/>
<path class="st0" d="M450,0l25-43.8h100L600,0l-50,87.5h-50L450,0z"/>
<path class="st0" d="M575-43.8l25-43.8h100l25,43.8l-50,87.5h-50L575-43.8z"/>
<path class="st0" d="M-75,306.2l25-43.8H50l25,43.8l-50,87.5h-50L-75,306.2z"/>
<path class="st1" d="M50,262.5l25-43.8h100l25,43.8L150,350h-50L50,262.5z"/>
<path class="st0" d="M175,218.7l25-43.8h100l25,43.8l-50,87.5h-50L175,218.7z"/>
<path class="st0" d="M300,175l25-43.8h100l25,43.8l-50,87.5h-50L300,175z"/>
<path class="st0" d="M425,131.2l25-43.8h100l25,43.8l-50,87.5h-50L425,131.2z"/>
<path class="st1" d="M550,87.5l25-43.8h100l25,43.8L650,175h-50L550,87.5z"/>
<path class="st0" d="M675,43.7L700,0h100l25,43.8l-50,87.5h-50L675,43.7z"/>
<path class="st0" d="M800,0l25-43.8h100L950,0l-50,87.5h-50L800,0z"/>
<path class="st0" d="M925-43.8l25-43.8h100l25,43.8l-50,87.5h-50L925-43.8z"/>
<path class="st1" d="M-100,437.5l25-43.8H25l25,43.8L0,525h-50L-100,437.5z"/>
<path class="st1" d="M25,393.8L50,350h100l25,43.8l-50,87.5H75L25,393.8z"/>
<path class="st2" d="M150,350l25-43.8h100l25,43.8l-50,87.5h-50L150,350z"/>
<path class="st1" d="M275,306.2l25-43.8h100l25,43.8l-50,87.5h-50L275,306.2z"/>
<path class="st1" d="M400,262.5l25-43.8h100l25,43.8L500,350h-50L400,262.5z"/>
<path class="st0" d="M525,218.7l25-43.8h100l25,43.8l-50,87.5h-50L525,218.7z"/>
<path class="st1" d="M650,175l25-43.8h100l25,43.8l-50,87.5h-50L650,175z"/>
<path class="st0" d="M775,131.2l25-43.8h100l25,43.8l-50,87.5h-50L775,131.2z"/>
<path class="st1" d="M900,87.5l25-43.8h100l25,43.8l-50,87.5h-50L900,87.5z"/>
<path class="st0" d="M1025,43.7L1050,0h100l25,43.8l-50,87.5h-50L1025,43.7z"/>
<path class="st0" d="M1150,0l25-43.8h100L1300,0l-50,87.5h-50L1150,0z"/>
<path class="st0" d="M1275-43.8l25-43.8h100l25,43.8l-50,87.5h-50L1275-43.8z"/>
<path class="st2" d="M-125,568.8l25-43.8H0l25,43.8l-50,87.5h-50L-125,568.8z"/>
<path class="st2" d="M0,525l25-43.8h100l25,43.8l-50,87.5H50L0,525z"/>
<path class="st1" d="M125,481.2l25-43.8h100l25,43.8l-50,87.5h-50L125,481.2z"/>
<path class="st2" d="M250,437.5l25-43.8h100l25,43.8L350,525h-50L250,437.5z"/>
<path class="st2" d="M375,393.8l25-43.8h100l25,43.8l-50,87.5h-50L375,393.8z"/>
<path class="st1" d="M500,350l25-43.8h100l25,43.8l-50,87.5h-50L500,350z"/>
<path class="st1" d="M625,306.2l25-43.8h100l25,43.8l-50,87.5h-50L625,306.2z"/>
<path class="st1" d="M750,262.5l25-43.8h100l25,43.8L850,350h-50L750,262.5z"/>
<path class="st1" d="M875,218.7l25-43.8h100l25,43.8l-50,87.5h-50L875,218.7z"/>
<path class="st0" d="M1000,175l25-43.8h100l25,43.8l-50,87.5h-50L1000,175z"/>
<path class="st1" d="M1125,131.2l25-43.8h100l25,43.8l-50,87.5h-50L1125,131.2z"/>
<path class="st0" d="M1250,87.5l25-43.8h100l25,43.8l-50,87.5h-50L1250,87.5z"/>
<path class="st0" d="M1375,43.7L1400,0h100l25,43.8l-50,87.5h-50L1375,43.7z"/>
<path class="st0" d="M1500,0l25-43.8h100L1650,0l-50,87.5h-50L1500,0z"/>
<path class="st0" d="M1625-43.8l25-43.8h100l25,43.8l-50,87.5h-50L1625-43.8z"/>
<path class="st3" d="M-150,700l25-43.8h100L0,700l-50,87.5h-50L-150,700z"/>
<path class="st3" d="M-25,656.2l25-43.8h100l25,43.8l-50,87.5H25L-25,656.2z"/>
<path class="st2" d="M100,612.5l25-43.8h100l25,43.8L200,700h-50L100,612.5z"/>
<path class="st2" d="M225,568.8l25-43.8h100l25,43.8l-50,87.5h-50L225,568.8z"/>
<path class="st3" d="M350,525l25-43.8h100l25,43.8l-50,87.5h-50L350,525z"/>
<path class="st2" d="M475,481.2l25-43.8h100l25,43.8l-50,87.5h-50L475,481.2z"/>
<path class="st2" d="M600,437.5l25-43.8h100l25,43.8L700,525h-50L600,437.5z"/>
<path class="st2" d="M725,393.8l25-43.8h100l25,43.8l-50,87.5h-50L725,393.8z"/>
<path class="st1" d="M850,350l25-43.8h100l25,43.8l-50,87.5h-50L850,350z"/>
<path class="st2" d="M975,306.2l25-43.8h100l25,43.8l-50,87.5h-50L975,306.2z"/>
<path class="st2" d="M1100,262.5l25-43.8h100l25,43.8l-50,87.5h-50L1100,262.5z"/>
<path class="st0" d="M1225,218.7l25-43.8h100l25,43.8l-50,87.5h-50L1225,218.7z"/>
<path class="st1" d="M1350,175l25-43.8h100l25,43.8l-50,87.5h-50L1350,175z"/>
<path class="st0" d="M1475,131.2l25-43.8h100l25,43.8l-50,87.5h-50L1475,131.2z"/>
<path class="st0" d="M1600,87.5l25-43.8h100l25,43.8l-50,87.5h-50L1600,87.5z"/>
<path class="st0" d="M1725,43.7L1750,0h100l25,43.8l-50,87.5h-50L1725,43.7z"/>
<path class="st0" d="M1850,0l25-43.8h100L2000,0l-50,87.5h-50L1850,0z"/>
<path class="st0" d="M1975-43.8l25-43.8h100l25,43.8l-50,87.5h-50L1975-43.8z"/>
<path class="st3" d="M-175,831.2l25-43.8h100l25,43.8l-50,87.5h-50L-175,831.2z"/>
<path class="st1" d="M-200,350l25-43.8h100l25,43.8l-50,87.5h-50L-200,350z"/>
<path class="st2" d="M-225,481.2l25-43.8h100l25,43.8l-50,87.5h-50L-225,481.2z"/>
<path class="st3" d="M-250,612.5l25-43.8h100l25,43.8l-50,87.5h-50L-250,612.5z"/>
<path class="st3" d="M-275,743.8l25-43.8h100l25,43.8l-50,87.5h-50L-275,743.8z"/>
<path class="st3" d="M-50,787.5l25-43.8H75l25,43.8L50,875H0L-50,787.5z"/>
<path class="st3" d="M75,743.8l25-43.8h100l25,43.8l-50,87.5h-50L75,743.8z"/>
<path class="st3" d="M200,700l25-43.8h100l25,43.8l-50,87.5h-50L200,700z"/>
<path class="st3" d="M325,656.2l25-43.8h100l25,43.8l-50,87.5h-50L325,656.2z"/>
<path class="st3" d="M450,612.5l25-43.8h100l25,43.8L550,700h-50L450,612.5z"/>
<path class="st3" d="M575,568.8l25-43.8h100l25,43.8l-50,87.5h-50L575,568.8z"/>
<path class="st2" d="M700,525l25-43.8h100l25,43.8l-50,87.5h-50L700,525z"/>
<path class="st3" d="M825,481.2l25-43.8h100l25,43.8l-50,87.5h-50L825,481.2z"/>
<path class="st2" d="M950,437.5l25-43.8h100l25,43.8l-50,87.5h-50L950,437.5z"/>
<path class="st3" d="M1075,393.8l25-43.8h100l25,43.8l-50,87.5h-50L1075,393.8z"/>
<path class="st2" d="M1200,350l25-43.8h100l25,43.8l-50,87.5h-50L1200,350z"/>
<path class="st1" d="M1325,306.2l25-43.8h100l25,43.8l-50,87.5h-50L1325,306.2z"/>
<path class="st2" d="M1450,262.5l25-43.8h100l25,43.8l-50,87.5h-50L1450,262.5z"/>
<path class="st1" d="M1575,218.7l25-43.8h100l25,43.8l-50,87.5h-50L1575,218.7z"/>
<path class="st0" d="M1700,175l25-43.8h100l25,43.8l-50,87.5h-50L1700,175z"/>
<path class="st1" d="M1825,131.2l25-43.8h100l25,43.8l-50,87.5h-50L1825,131.2z"/>
<path class="st0" d="M1950,87.5l25-43.8h100l25,43.8l-50,87.5h-50L1950,87.5z"/>
<path class="st0" d="M2075,43.7L2100,0h100l25,43.8l-50,87.5h-50L2075,43.7z"/>
<path class="st0" d="M2200,0l25-43.8h100L2350,0l-50,87.5h-50L2200,0z"/>
<path class="st0" d="M2325-43.8l25-43.8h100l25,43.8l-50,87.5h-50L2325-43.8z"/>
<path class="st3" d="M175,831.2l25-43.8h100l25,43.8l-50,87.5h-50L175,831.2z"/>
<path class="st3" d="M300,787.5l25-43.8h100l25,43.8L400,875h-50L300,787.5z"/>
<path class="st3" d="M425,743.8l25-43.8h100l25,43.8l-50,87.5h-50L425,743.8z"/>
<path class="st3" d="M550,700l25-43.8h100l25,43.8l-50,87.5h-50L550,700z"/>
<path class="st3" d="M675,656.2l25-43.8h100l25,43.8l-50,87.5h-50L675,656.2z"/>
<path class="st3" d="M800,612.5l25-43.8h100l25,43.8L900,700h-50L800,612.5z"/>
<path class="st3" d="M925,568.8l25-43.8h100l25,43.8l-50,87.5h-50L925,568.8z"/>
<path class="st3" d="M1050,525l25-43.8h100l25,43.8l-50,87.5h-50L1050,525z"/>
<path class="st3" d="M1175,481.2l25-43.8h100l25,43.8l-50,87.5h-50L1175,481.2z"/>
<path class="st2" d="M1300,437.5l25-43.8h100l25,43.8l-50,87.5h-50L1300,437.5z"/>
<path class="st2" d="M1425,393.8l25-43.8h100l25,43.8l-50,87.5h-50L1425,393.8z"/>
<path class="st2" d="M1550,350l25-43.8h100l25,43.8l-50,87.5h-50L1550,350z"/>
<path class="st2" d="M1675,306.2l25-43.8h100l25,43.8l-50,87.5h-50L1675,306.2z"/>
<path class="st1" d="M1800,262.5l25-43.8h100l25,43.8l-50,87.5h-50L1800,262.5z"/>
<path class="st1" d="M1925,218.7l25-43.8h100l25,43.8l-50,87.5h-50L1925,218.7z"/>
<path class="st0" d="M2050,175l25-43.8h100l25,43.8l-50,87.5h-50L2050,175z"/>
<path class="st0" d="M2175,131.2l25-43.8h100l25,43.8l-50,87.5h-50L2175,131.2z"/>
<path class="st0" d="M2300,87.5l25-43.8h100l25,43.8l-50,87.5h-50L2300,87.5z"/>
<path class="st0" d="M2425,43.7L2450,0h100l25,43.8l-50,87.5h-50L2425,43.7z"/>
<path class="st3" d="M525,831.2l25-43.8h100l25,43.8l-50,87.5h-50L525,831.2z"/>
<path class="st3" d="M650,787.5l25-43.8h100l25,43.8L750,875h-50L650,787.5z"/>
<path class="st3" d="M775,743.8l25-43.8h100l25,43.8l-50,87.5h-50L775,743.8z"/>
<path class="st3" d="M900,700l25-43.8h100l25,43.8l-50,87.5h-50L900,700z"/>
<path class="st3" d="M1025,656.2l25-43.8h100l25,43.8l-50,87.5h-50L1025,656.2z"/>
<path class="st3" d="M1150,612.5l25-43.8h100l25,43.8l-50,87.5h-50L1150,612.5z"/>
<path class="st3" d="M1275,568.8l25-43.8h100l25,43.8l-50,87.5h-50L1275,568.8z"/>
<path class="st3" d="M1400,525l25-43.8h100l25,43.8l-50,87.5h-50L1400,525z"/>
<path class="st2" d="M1525,481.2l25-43.8h100l25,43.8l-50,87.5h-50L1525,481.2z"/>
<path class="st3" d="M1650,437.5l25-43.8h100l25,43.8l-50,87.5h-50L1650,437.5z"/>
<path class="st2" d="M1775,393.8l25-43.8h100l25,43.8l-50,87.5h-50L1775,393.8z"/>
<path class="st2" d="M1900,350l25-43.8h100l25,43.8l-50,87.5h-50L1900,350z"/>
<path class="st1" d="M2025,306.2l25-43.8h100l25,43.8l-50,87.5h-50L2025,306.2z"/>
<path class="st1" d="M2150,262.5l25-43.8h100l25,43.8l-50,87.5h-50L2150,262.5z"/>
<path class="st0" d="M2275,218.7l25-43.8h100l25,43.8l-50,87.5h-50L2275,218.7z"/>
<path class="st0" d="M2400,175l25-43.8h100l25,43.8l-50,87.5h-50L2400,175z"/>
<path class="st3" d="M875,831.2l25-43.8h100l25,43.8l-50,87.5h-50L875,831.2z"/>
<path class="st3" d="M1000,787.5l25-43.8h100l25,43.8l-50,87.5h-50L1000,787.5z"/>
<path class="st3" d="M1125,743.8l25-43.8h100l25,43.8l-50,87.5h-50L1125,743.8z"/>
<path class="st3" d="M1250,700l25-43.8h100l25,43.8l-50,87.5h-50L1250,700z"/>
<path class="st3" d="M1375,656.2l25-43.8h100l25,43.8l-50,87.5h-50L1375,656.2z"/>
<path class="st3" d="M1500,612.5l25-43.8h100l25,43.8l-50,87.5h-50L1500,612.5z"/>
<path class="st3" d="M1625,568.8l25-43.8h100l25,43.8l-50,87.5h-50L1625,568.8z"/>
<path class="st3" d="M1750,525l25-43.8h100l25,43.8l-50,87.5h-50L1750,525z"/>
<path class="st2" d="M1875,481.2l25-43.8h100l25,43.8l-50,87.5h-50L1875,481.2z"/>
<path class="st2" d="M2000,437.5l25-43.8h100l25,43.8l-50,87.5h-50L2000,437.5z"/>
<path class="st1" d="M2125,393.8l25-43.8h100l25,43.8l-50,87.5h-50L2125,393.8z"/>
<path class="st1" d="M2250,350l25-43.8h100l25,43.8l-50,87.5h-50L2250,350z"/>
<path class="st1" d="M2375,306.2l25-43.8h100l25,43.8l-50,87.5h-50L2375,306.2z"/>
<path class="st0" d="M2550,0l25-43.8h100L2700,0l-50,87.5h-50L2550,0z"/>
<path class="st0" d="M2525,131.2l25-43.8h100l25,43.8l-50,87.5h-50L2525,131.2z"/>
<path class="st0" d="M2500,262.5l25-43.8h100l25,43.8l-50,87.5h-50L2500,262.5z"/>
<path class="st3" d="M1225,831.2l25-43.8h100l25,43.8l-50,87.5h-50L1225,831.2z"/>
<path class="st3" d="M1350,787.5l25-43.8h100l25,43.8l-50,87.5h-50L1350,787.5z"/>
<path class="st3" d="M1475,743.8l25-43.8h100l25,43.8l-50,87.5h-50L1475,743.8z"/>
<path class="st3" d="M1600,700l25-43.8h100l25,43.8l-50,87.5h-50L1600,700z"/>
<path class="st3" d="M1725,656.2l25-43.8h100l25,43.8l-50,87.5h-50L1725,656.2z"/>
<path class="st3" d="M1850,612.5l25-43.8h100l25,43.8l-50,87.5h-50L1850,612.5z"/>
<path class="st3" d="M1975,568.8l25-43.8h100l25,43.8l-50,87.5h-50L1975,568.8z"/>
<path class="st2" d="M2100,525l25-43.8h100l25,43.8l-50,87.5h-50L2100,525z"/>
<path class="st2" d="M2225,481.2l25-43.8h100l25,43.8l-50,87.5h-50L2225,481.2z"/>
<path class="st2" d="M2350,437.5l25-43.8h100l25,43.8l-50,87.5h-50L2350,437.5z"/>
<path class="st1" d="M2475,393.8l25-43.8h100l25,43.8l-50,87.5h-50L2475,393.8z"/>
<path class="st3" d="M1575,831.2l25-43.8h100l25,43.8l-50,87.5h-50L1575,831.2z"/>
<path class="st3" d="M1700,787.5l25-43.8h100l25,43.8l-50,87.5h-50L1700,787.5z"/>
<path class="st3" d="M1825,743.8l25-43.8h100l25,43.8l-50,87.5h-50L1825,743.8z"/>
<path class="st3" d="M1950,700l25-43.8h100l25,43.8l-50,87.5h-50L1950,700z"/>
<path class="st3" d="M2075,656.2l25-43.8h100l25,43.8l-50,87.5h-50L2075,656.2z"/>
<path class="st3" d="M2200,612.5l25-43.8h100l25,43.8l-50,87.5h-50L2200,612.5z"/>
<path class="st2" d="M2325,568.8l25-43.8h100l25,43.8l-50,87.5h-50L2325,568.8z"/>
<path class="st1" d="M2450,525l25-43.8h100l25,43.8l-50,87.5h-50L2450,525z"/>
<path class="st3" d="M1925,831.2l25-43.8h100l25,43.8l-50,87.5h-50L1925,831.2z"/>
<path class="st3" d="M2050,787.5l25-43.8h100l25,43.8l-50,87.5h-50L2050,787.5z"/>
<path class="st3" d="M2175,743.8l25-43.8h100l25,43.8l-50,87.5h-50L2175,743.8z"/>
<path class="st3" d="M2300,700l25-43.8h100l25,43.8l-50,87.5h-50L2300,700z"/>
<path class="st2" d="M2425,656.2l25-43.8h100l25,43.8l-50,87.5h-50L2425,656.2z"/>
<path class="st3" d="M2275,831.2l25-43.8h100l25,43.8l-50,87.5h-50L2275,831.2z"/>
<path class="st3" d="M2400,787.5l25-43.8h100l25,43.8l-50,87.5h-50L2400,787.5z"/>
<path class="st0" d="M2675-43.8l25-43.8h100l25,43.8l-50,87.5h-50L2675-43.8z"/>
<path class="st0" d="M2650,87.5l25-43.8h100l25,43.8l-50,87.5h-50L2650,87.5z"/>
<path class="st0" d="M2775,43.7L2800,0h100l25,43.8l-50,87.5h-50L2775,43.7z"/>
<path class="st0" d="M2900,0l25-43.8h100L3050,0l-50,87.5h-50L2900,0z"/>
<path class="st1" d="M2625,218.7l25-43.8h100l25,43.8l-50,87.5h-50L2625,218.7z"/>
<path class="st0" d="M2750,175l25-43.8h100l25,43.8l-50,87.5h-50L2750,175z"/>
<path class="st0" d="M2875,131.2l25-43.8h100l25,43.8l-50,87.5h-50L2875,131.2z"/>
<path class="st0" d="M2725,306.2l25-43.8h100l25,43.8l-50,87.5h-50L2725,306.2z"/>
<path class="st1" d="M2850,262.5l25-43.8h100l25,43.8l-50,87.5h-50L2850,262.5z"/>
<path class="st1" d="M2700,437.5l25-43.8h100l25,43.8l-50,87.5h-50L2700,437.5z"/>
<path class="st1" d="M2825,393.8l25-43.8h100l25,43.8l-50,87.5h-50L2825,393.8z"/>
<path class="st2" d="M2675,568.8l25-43.8h100l25,43.8l-50,87.5h-50L2675,568.8z"/>
<path class="st2" d="M2800,525l25-43.8h100l25,43.8l-50,87.5h-50L2800,525z"/>
<path class="st3" d="M2650,700l25-43.8h100l25,43.8l-50,87.5h-50L2650,700z"/>
<path class="st3" d="M2775,656.2l25-43.8h100l25,43.8l-50,87.5h-50L2775,656.2z"/>
<path class="st3" d="M2625,831.2l25-43.8h100l25,43.8l-50,87.5h-50L2625,831.2z"/>
<path class="st1" d="M2600,350l25-43.8h100l25,43.8l-50,87.5h-50L2600,350z"/>
<path class="st2" d="M2575,481.2l25-43.8h100l25,43.8l-50,87.5h-50L2575,481.2z"/>
<path class="st3" d="M2550,612.5l25-43.8h100l25,43.8l-50,87.5h-50L2550,612.5z"/>
<path class="st3" d="M2525,743.8l25-43.8h100l25,43.8l-50,87.5h-50L2525,743.8z"/>
<path class="st3" d="M2750,787.5l25-43.8h100l25,43.8l-50,87.5h-50L2750,787.5z"/>
</svg>
